<?xml version="1.0" encoding="UTF-8"?>
<svg xmlns="http://www.w3.org/2000/svg" width="110" height="110" viewBox="0 0 109.93 109.93">
  <rect x="44.8" y="44.8" width="20.32" height="20.32" rx="10.16" ry="10.16" fill="#33063d"/>
  <rect x="44.8" y="0" width="20.32" height="20.32" rx="1.35" ry="1.35" fill="#33063d"/>
  <rect x="76.88" y="13.01" width="20.32" height="20.32" rx="1.35" ry="1.35" fill="#33063d"/>
  <rect x="12.73" y="13.01" width="20.32" height="20.32" rx="1.35" ry="1.35" fill="#33063d"/>
  <rect x="76.88" y="76.6" width="20.32" height="20.32" rx="1.35" ry="1.35" fill="#33063d"/>
  <rect x="44.8" y="89.61" width="20.32" height="20.32" rx="1.35" ry="1.35" fill="#33063d"/>
  <rect x="12.73" y="76.6" width="20.32" height="20.32" rx="1.35" ry="1.35" fill="#33063d"/>
  <rect x="89.61" y="44.8" width="20.32" height="20.32" rx="1.35" ry="1.35" transform="translate(154.73 -44.8) rotate(90)" fill="#33063d"/>
  <rect x="0" y="44.8" width="20.32" height="20.32" rx="1.35" ry="1.35" transform="translate(65.13 44.8) rotate(90)" fill="#33063d"/>
</svg>
